<?xml version="1.0" encoding="UTF-8" standalone="no"?>
<!DOCTYPE svg PUBLIC "-//W3C//DTD SVG 1.1//EN" "http://www.w3.org/Graphics/SVG/1.1/DTD/svg11.dtd">
<svg width="100%" height="100%" viewBox="0 0 512 512" version="1.1" xmlns="http://www.w3.org/2000/svg" xmlns:xlink="http://www.w3.org/1999/xlink" xml:space="preserve" xmlns:serif="http://www.serif.com/" style="fill-rule:evenodd;clip-rule:evenodd;stroke-linejoin:round;stroke-miterlimit:2;">
    <rect id="Bird_circle" x="0" y="0" width="512" height="512" style="fill:none;"/>
    <g id="Bird_circle1" serif:id="Bird_circle">
        <circle cx="256" cy="256" r="256" style="fill:rgb(255,138,125);"/>
        <g transform="matrix(0.523449,0,0,0.523449,-1777.08,1.47296)">
            <g transform="matrix(1,0,0,1,3319.77,-14.0211)">
                <path d="M404.551,425.561L399.949,477.986C399.949,477.986 388.922,501.85 351.199,500.102C313.477,498.354 314.662,496.918 303.436,500.102C294.66,502.59 291.559,511.236 283.838,519.201C276.117,527.166 295.752,519.047 314.105,533.303C332.459,547.559 369.932,594.529 398.387,607.049C426.842,619.569 431.592,622.145 452.637,623.25C473.682,624.356 479.193,642.543 472.027,649.738C472.027,649.738 457.252,680.584 453.129,704.467C449.006,728.35 433.545,753.041 424.08,772.637C414.615,792.233 416.852,802.34 406.721,807.151C396.59,811.961 370.455,808.871 353.672,811.654C336.889,814.438 333.764,810.188 325.883,816.291C318.002,822.395 310.91,821.508 328.559,821.848C346.207,822.188 375.658,825.037 381.398,824.922C387.139,824.807 373.619,827.918 368.779,834.389C363.939,840.86 356.954,844.984 361.082,844.4C364.971,843.85 366.941,840.616 375.752,837.955C378.658,837.077 383.108,835.572 386.693,834.133C393.441,831.424 402.879,823.168 416.24,821.701C429.602,820.235 427.568,821.93 433.295,811.861C439.021,801.793 507.293,676.867 512,674.49C516.707,672.113 523.652,661.088 526.121,688.172C528.59,715.256 526.404,792.613 522.563,802.772C518.721,812.93 506.625,842.555 487.75,847.313C468.875,852.07 448.199,848.791 442.576,849.131C436.953,849.471 430.021,852.289 433.275,853.233C437.612,854.49 457.572,856.678 468.596,856.678C479.619,856.678 462.068,863.584 462.068,863.584C462.068,863.584 435.896,866.647 426.824,868.078C417.752,869.51 420.268,872.796 422.434,872.873C429.884,873.138 475.557,864.721 471.527,869.664C467.498,874.608 464.182,880.414 464.182,880.414C464.182,880.414 459.971,891.531 469.502,883.246C479.033,874.961 489.326,859.92 503.084,851.846C509.225,848.242 528.471,845.639 550.85,845.397C550.85,845.397 563.856,843.098 576.229,836.594C588.491,830.149 536.142,841.586 536.418,828.014C536.87,805.84 576.529,740.006 578.939,703.549C581.35,667.092 583.666,641.629 596.855,644.022C610.045,646.414 644.467,649.633 668.875,663.322C693.283,677.012 764.516,655.194 809.703,657.406C809.703,657.406 845.976,647.794 843.49,634.397C840.916,620.522 819.535,579.957 794.26,574.156C764.234,567.265 675.596,596.514 663.336,593.051C651.076,589.588 632.596,576.688 640.561,571.86C648.525,567.031 705.334,498.826 726.732,467.402C748.131,435.979 750.154,406.733 771.889,380.822C793.623,354.912 852.045,246.008 845.906,220.244C839.768,194.481 801.385,87.729 715.912,120.377C715.912,120.377 576.332,190.809 546.607,224.906C516.883,259.004 445.977,305.553 426.668,350.637C407.359,395.721 407.236,398.576 404.551,425.561Z"/>
            </g>
            <g transform="matrix(1,0,0,1,-155.771,275.131)">
                <g transform="matrix(0.133522,0,0,0.133522,3849.75,39.8049)">
                    <circle cx="580.151" cy="1325.98" r="13.754" style="fill:white;"/>
                </g>
                <g transform="matrix(0.26737,0,0,0.262104,3785.63,-108.703)">
                    <circle cx="580.151" cy="1325.98" r="13.754" style="fill:white;"/>
                </g>
                <g transform="matrix(0.212447,0,0,0.212447,3831.82,36.5064)">
                    <circle cx="580.151" cy="1325.98" r="13.754" style="fill:white;"/>
                </g>
                <g transform="matrix(0.5,0,0,0.5,3580.94,-390.002)">
                    <circle cx="580.151" cy="1325.98" r="13.754" style="fill:white;"/>
                </g>
                <g transform="matrix(0.246831,0,0,0.25,3746.89,-48.1907)">
                    <circle cx="580.151" cy="1325.98" r="13.754" style="fill:white;"/>
                </g>
                <g transform="matrix(0.246831,0,0,0.25,3768.41,-75.7688)">
                    <circle cx="580.151" cy="1325.98" r="13.754" style="fill:white;"/>
                </g>
                <g transform="matrix(0.246831,0,0,0.25,3823.81,-69.7581)">
                    <circle cx="580.151" cy="1325.98" r="13.754" style="fill:white;"/>
                </g>
                <g transform="matrix(0.363486,0,0,0.386357,3739.71,-266.83)">
                    <circle cx="580.151" cy="1325.98" r="13.754" style="fill:white;"/>
                </g>
                <g transform="matrix(0.363486,0,0,0.386357,3731.19,-246.369)">
                    <circle cx="580.151" cy="1325.98" r="13.754" style="fill:white;"/>
                </g>
                <g transform="matrix(0.246831,0,0,0.25,3786.86,-24.9788)">
                    <circle cx="580.151" cy="1325.98" r="13.754" style="fill:white;"/>
                </g>
                <g transform="matrix(0.246831,0,0,0.25,3850.74,-30.8108)">
                    <circle cx="580.151" cy="1325.98" r="13.754" style="fill:white;"/>
                </g>
                <g transform="matrix(0.246831,0,0,0.25,3876.58,-12.9719)">
                    <circle cx="580.151" cy="1325.98" r="13.754" style="fill:white;"/>
                </g>
                <g transform="matrix(0.299316,0,0,0.303158,3809.32,-155.365)">
                    <circle cx="580.151" cy="1325.98" r="13.754" style="fill:white;"/>
                </g>
                <g transform="matrix(0.430229,0,0,0.435752,3750.91,-312.545)">
                    <circle cx="580.151" cy="1325.98" r="13.754" style="fill:white;"/>
                </g>
                <g transform="matrix(0.134885,0,0,0.136617,3892.2,41.8196)">
                    <circle cx="580.151" cy="1325.98" r="13.754" style="fill:white;"/>
                </g>
                <g transform="matrix(0.134885,0,0,0.136617,3874.23,35.6584)">
                    <circle cx="580.151" cy="1325.98" r="13.754" style="fill:white;"/>
                </g>
            </g>
        </g>
    </g>
</svg>
